<?xml version="1.0" encoding="UTF-8" standalone="no"?>
<svg
   xmlns:dc="http://purl.org/dc/elements/1.1/"
   xmlns:cc="http://creativecommons.org/ns#"
   xmlns:rdf="http://www.w3.org/1999/02/22-rdf-syntax-ns#"
   xmlns:svg="http://www.w3.org/2000/svg"
   xmlns="http://www.w3.org/2000/svg"
   xmlns:sodipodi="http://sodipodi.sourceforge.net/DTD/sodipodi-0.dtd"
   xmlns:inkscape="http://www.inkscape.org/namespaces/inkscape"
   stroke-miterlimit="10"
   font-weight="normal"
   font-style="normal"
   font-size="12"
   id="svg2"
   version="1.1"
   inkscape:version="0.91 r13725"
   sodipodi:docname="icon.svg"
   width="64"
   height="64"
   style="font-style:normal;font-weight:normal;font-size:12px;font-family:Dialog;color-interpolation:auto;fill:#000000;fill-opacity:1;stroke:#000000;stroke-width:1;stroke-linecap:square;stroke-linejoin:miter;stroke-miterlimit:10;stroke-dasharray:none;stroke-dashoffset:0;stroke-opacity:1;color-rendering:auto;image-rendering:auto;shape-rendering:auto;text-rendering:auto"
   inkscape:export-filename="/home/mark/Stance_Detection/metadata/icon.png"
   inkscape:export-xdpi="90"
   inkscape:export-ydpi="90">
  <metadata
     id="metadata13">
    <rdf:RDF>
      <cc:Work
         rdf:about="">
        <dc:format>image/svg+xml</dc:format>
        <dc:type
           rdf:resource="http://purl.org/dc/dcmitype/StillImage" />
        <dc:title></dc:title>
      </cc:Work>
    </rdf:RDF>
  </metadata>
  <sodipodi:namedview
     pagecolor="#ffffff"
     bordercolor="#666666"
     borderopacity="1"
     objecttolerance="10"
     gridtolerance="10"
     guidetolerance="10"
     inkscape:pageopacity="0"
     inkscape:pageshadow="2"
     inkscape:window-width="3070"
     inkscape:window-height="1752"
     id="namedview11"
     showgrid="false"
     fit-margin-top="0"
     fit-margin-left="1"
     fit-margin-right="1"
     fit-margin-bottom="0"
     inkscape:zoom="2.36"
     inkscape:cx="42"
     inkscape:cy="258.44174"
     inkscape:window-x="130"
     inkscape:window-y="48"
     inkscape:window-maximized="1"
     inkscape:current-layer="svg2" />
  <!--Unicode Character 'SHRUG' (U+1F937)-->
  <defs
     id="genericDefs" />
  <g
     id="g5"
     transform="matrix(0.21319579,0,0,0.21319579,-0.91876211,-27.825921)">
    <g
       id="g7">
      <path
         d="m 195.6094,214.7344 q 0,17.8594 -11.5313,30.5156 -11.9531,12.9375 -29.6719,12.9375 -17.7187,0 -29.4609,-12.7969 -11.7422,-12.7968 -11.7422,-30.6562 0,-17.8594 11.7422,-30.6563 11.7422,-12.7969 29.4609,-12.7969 17.7188,0 29.461,12.7969 11.7422,12.7969 11.7422,30.6563 z m 104.2031,74.9531 q 0,5.3437 -5.9063,8.2969 -4.6406,2.5312 -10.5468,2.5312 l -10.125,0 q -7.875,21.0938 -24.75,63 -5.3438,12.375 -14.4844,12.375 -7.1719,0 -11.3906,-7.3125 -1.125,-1.8281 -6.4688,-16.4531 -5.2031,-13.9219 -13.3594,-34.5938 l 0,75.6563 -96.75,0 0,-75.6563 q -8.1562,20.6719 -13.3593,34.5938 -1.8281,5.625 -6.4688,16.4531 -4.2187,7.3125 -11.3906,7.3125 -9.1406,0 -14.4844,-12.375 -8.1562,-21.0937 -24.75,-63 l -10.125,0 q -5.9062,0 -10.5469,-2.5312 Q 9,295.0312 9,289.6875 9,276.4688 20.6719,276.4688 l 30.0937,0 24.4688,54.8437 q 4.2187,-13.2187 12.9375,-39.7969 11.3906,-34.4531 24.3281,-34.4531 6.8906,0 20.25,9.7031 13.3594,9.7032 21.6562,9.7032 8.2969,0 21.6563,-9.7032 13.3594,-9.7031 20.25,-9.7031 12.9375,0 24.3281,34.4531 4.2188,13.3594 12.9375,39.7969 l 24.4688,-54.8437 30.0937,0 q 11.6719,0 11.6719,13.2187 z"
         id="path9"
         inkscape:connector-curvature="0"
         style="stroke:none" />
    </g>
  </g>
</svg>
